<svg width="38" height="37" viewBox="0 0 38 37" fill="none" xmlns="http://www.w3.org/2000/svg">
<g filter="url(#filter0_d_610_667)">
<path d="M32.3125 14.2975L26.675 19.2175L28.3637 26.5425C28.4531 26.9254 28.4276 27.3262 28.2904 27.6947C28.1533 28.0632 27.9105 28.3831 27.5925 28.6144C27.2745 28.8457 26.8954 28.9782 26.5025 28.9951C26.1097 29.0121 25.7205 28.913 25.3837 28.71L18.995 24.835L12.62 28.71C12.2832 28.913 11.8941 29.0121 11.5012 28.9951C11.1084 28.9782 10.7292 28.8457 10.4112 28.6144C10.0932 28.3831 9.85047 28.0632 9.7133 27.6947C9.57613 27.3262 9.55063 26.9254 9.63999 26.5425L11.3262 19.225L5.68749 14.2975C5.38925 14.0403 5.17359 13.7007 5.06756 13.3214C4.96153 12.9421 4.96984 12.54 5.09146 12.1654C5.21307 11.7908 5.44258 11.4604 5.75119 11.2158C6.0598 10.9711 6.43379 10.823 6.82624 10.79L14.2587 10.1462L17.16 3.22624C17.3115 2.86314 17.5671 2.55298 17.8945 2.33482C18.2219 2.11665 18.6065 2.00024 19 2.00024C19.3934 2.00024 19.7781 2.11665 20.1055 2.33482C20.4329 2.55298 20.6885 2.86314 20.84 3.22624L23.75 10.1462L31.18 10.79C31.5724 10.823 31.9464 10.9711 32.255 11.2158C32.5637 11.4604 32.7932 11.7908 32.9148 12.1654C33.0364 12.54 33.0447 12.9421 32.9387 13.3214C32.8326 13.7007 32.617 14.0403 32.3187 14.2975H32.3125Z" fill="#0C0C0D"/>
</g>
<defs>
<filter id="filter0_d_610_667" x="-1" y="0" width="40" height="40" filterUnits="userSpaceOnUse" color-interpolation-filters="sRGB">
<feFlood flood-opacity="0" result="BackgroundImageFix"/>
<feColorMatrix in="SourceAlpha" type="matrix" values="0 0 0 0 0 0 0 0 0 0 0 0 0 0 0 0 0 0 127 0" result="hardAlpha"/>
<feOffset dy="4"/>
<feGaussianBlur stdDeviation="2"/>
<feComposite in2="hardAlpha" operator="out"/>
<feColorMatrix type="matrix" values="0 0 0 0 0 0 0 0 0 0 0 0 0 0 0 0 0 0 0.25 0"/>
<feBlend mode="normal" in2="BackgroundImageFix" result="effect1_dropShadow_610_667"/>
<feBlend mode="normal" in="SourceGraphic" in2="effect1_dropShadow_610_667" result="shape"/>
</filter>
</defs>
</svg>
